<?xml version="1.0" standalone="no"?>
<svg xmlns="http://www.w3.org/2000/svg" viewBox="0 0 94.919 109.603" width="94.919" height="109.603"><polygon fill="none" stroke="#f1333f" stroke-width="3" points="93.419,28.15075 93.419,81.45224999999999 47.4595,108.103 1.5,81.45224999999999 1.5,28.15075 47.4595,1.5"></polygon><path fill="#353434" fill-rule="nonzero" d="M20.97 0Q24.33 0 26.21 1.93Q28.08 3.86 28.08 7.53L28.08 7.53L28.08 19.77L26.04 19.77L26.04 7.59Q26.04 4.73 24.60 3.29Q23.16 1.85 20.66 1.85L20.66 1.85Q18.03 1.85 16.55 3.37Q15.06 4.90 15.06 8.04L15.06 8.04L15.06 19.77L13.02 19.77L13.02 7.59Q13.02 4.73 11.62 3.29Q10.22 1.85 7.73 1.85L7.73 1.85Q5.07 1.85 3.57 3.37Q2.07 4.90 2.07 8.04L2.07 8.04L2.07 19.77L0 19.77L0 0.17L1.99 0.17L1.99 3.44Q2.80 1.76 4.40 0.88Q5.99 0 8.18 0L8.18 0Q10.47 0 12.11 0.97Q13.75 1.93 14.48 3.67L14.48 3.67Q15.32 1.88 17.01 0.94Q18.70 0 20.97 0L20.97 0ZM39.73 19.94Q37.55 19.94 35.55 19.24Q33.54 18.54 32.45 17.39L32.45 17.39L33.26 15.79Q34.33 16.86 36.09 17.51Q37.86 18.17 39.73 18.17L39.73 18.17Q42.36 18.17 43.68 17.21Q45.00 16.24 45.00 14.70L45.00 14.70Q45.00 13.52 44.28 12.82Q43.57 12.12 42.53 11.75Q41.50 11.37 39.65 10.92L39.65 10.92Q37.44 10.36 36.12 9.84Q34.80 9.32 33.87 8.26Q32.93 7.20 32.93 5.38L32.93 5.38Q32.93 3.89 33.71 2.67Q34.50 1.46 36.12 0.73Q37.74 0 40.15 0L40.15 0Q41.83 0 43.44 0.46Q45.05 0.92 46.23 1.74L46.23 1.74L45.53 3.39Q44.30 2.58 42.90 2.17Q41.50 1.76 40.15 1.76L40.15 1.76Q37.58 1.76 36.27 2.76Q34.97 3.75 34.97 5.32L34.97 5.32Q34.97 6.50 35.69 7.21Q36.40 7.92 37.48 8.30Q38.56 8.68 40.38 9.13L40.38 9.13Q42.53 9.66 43.86 10.18Q45.19 10.70 46.12 11.75Q47.04 12.80 47.04 14.59L47.04 14.59Q47.04 16.07 46.24 17.29Q45.44 18.51 43.79 19.22Q42.14 19.94 39.73 19.94L39.73 19.94Z" transform="translate(23.94, 22.5)"></path><g fill="#353434" color="#353434" transform="translate(25.4595 50.436) scale(0.9166667)"><svg width="48.0" height="40.0" x="0.0" y="0.0" viewBox="0 0 48 40"><path fill="currentColor" fill-rule="evenodd" d="M41.576 0L12.872 28.703v-2.95L38.625 0h-4.1l-10.9 10.898L12.725 0h-4.1l12.949 12.95-1.476 1.474L5.675 0h-4.1l16.474 16.475-1.475 1.475L0 1.376V40h2.9V8.378l2.087 2.086V40h2.9V13.364l2.086 2.087V40h2.9v-.146l10.752-10.752L34.525 40h2.951V15.253l2.086-2.087V40h2.9V10.266l2.087-2.086V40h2.898V5.434h-.153l.153-.154V1.178L12.872 35.754v-2.95L45.675 0h-4.1zm-8.849 20l1.848-1.848v3.697L32.727 20zm-19.855-1.65L14.522 20l-1.65 1.65V18.35zm16.329 5.176l1.476-1.474 3.898 3.899v2.952l-5.374-5.377zm-3.526 3.526l1.475-1.476 7.425 7.426v2.95l-8.9-8.9z"></path></svg></g></svg>